<svg xmlns="http://www.w3.org/2000/svg" width="1182" height="887" viewBox="0 0 1182 887">
<g>
<path d="M 0.00 0.00 L 1182.00 0.00 L 1182.00 887.00 L 0.00 887.00 ZM 294.01 694.25 L 294.00 698.00 L 934.74 698.00 L 935.34 690.25 C935.97,682.02 936.27,479.00 935.65,479.00 C934.44,479.00 790.10,531.99 775.21,537.90 C774.56,538.16 773.96,538.41 773.41,538.64 C771.33,539.52 769.92,540.11 768.97,539.68 C766.96,538.79 766.97,533.36 766.99,516.49 C767.00,514.37 767.00,512.06 767.00,509.56 L 767.00 479.12 L 756.25 482.96 C744.50,487.16 638.43,526.14 617.50,533.95 L 604.50 538.80 L 604.24 508.90 C604.09,492.45 603.78,479.00 603.54,479.00 C603.31,479.00 600.05,480.10 596.31,481.44 C592.56,482.78 580.95,486.86 570.50,490.51 C560.05,494.16 522.70,507.43 487.50,520.00 C452.30,532.57 422.84,543.00 422.03,543.18 C420.83,543.44 420.35,540.49 419.32,526.50 C416.51,488.16 406.33,338.30 405.01,316.00 C404.42,305.83 403.70,296.04 403.42,294.25 L 402.91 291.00 L 327.45 291.00 L 325.15 318.75 C323.89,334.01 321.33,364.05 319.47,385.50 C313.73,451.63 304.91,558.16 301.97,597.00 C301.40,604.42 300.28,617.92 299.47,627.00 C296.29,662.68 294.01,690.68 294.01,694.25 ZM 919.00 592.00 L 919.00 681.00 L 767.00 681.00 L 767.00 620.04 C767.00,562.99 767.11,559.01 768.75,558.14 C769.71,557.63 777.25,554.72 785.50,551.67 C793.75,548.63 823.22,537.76 851.00,527.52 C878.78,517.28 905.03,507.58 909.34,505.95 C913.64,504.33 917.58,503.00 918.09,503.00 C918.63,503.00 919.00,538.88 919.00,592.00 ZM 350.50 568.97 C344.45,571.09 335.11,574.43 329.75,576.40 L 320.00 579.96 L 320.00 577.07 C320.00,573.95 328.01,477.67 335.97,385.00 C338.69,353.38 341.22,323.11 341.59,317.75 L 342.27 308.00 L 387.76 308.00 L 388.38 316.25 C388.72,320.79 389.91,337.77 391.03,354.00 C392.14,370.23 394.61,405.77 396.51,433.00 C403.05,526.56 404.44,548.89 403.79,549.55 C403.19,550.15 378.85,559.02 350.50,568.97 ZM 481.00 583.27 L 481.00 681.00 L 429.45 681.00 L 427.73 654.25 C426.78,639.54 425.08,614.22 423.96,598.00 C422.83,581.78 422.04,566.75 422.21,564.62 L 422.50 560.73 L 454.50 549.35 C553.88,514.01 585.28,503.00 586.75,503.00 C587.71,503.00 588.00,507.85 588.00,523.91 L 588.00 544.81 L 583.75 546.31 C572.52,550.28 488.98,580.27 485.25,581.67 ZM 655.00 583.14 L 655.00 681.00 L 604.00 681.00 L 604.00 556.34 L 607.25 555.26 C609.04,554.66 619.05,551.05 629.50,547.22 C639.95,543.39 662.80,535.02 680.29,528.61 C697.77,522.21 720.45,513.83 730.68,509.98 C740.92,506.14 749.68,503.00 750.15,503.00 C750.62,503.00 751.00,512.85 751.00,524.89 C751.00,544.81 750.84,546.85 749.25,547.48 C748.29,547.86 738.72,551.45 728.00,555.47 C717.28,559.49 698.83,566.48 687.00,570.99 C675.17,575.51 663.14,580.09 660.25,581.17 ZM 413.00 677.15 L 413.00 681.00 L 362.00 681.00 C333.95,681.00 311.00,680.61 311.00,680.14 C311.00,679.67 311.65,672.58 312.45,664.39 C313.25,656.20 314.87,638.03 316.05,624.00 C317.24,609.97 318.50,598.24 318.85,597.92 C319.21,597.60 328.27,594.27 339.00,590.52 C349.73,586.77 369.04,579.94 381.91,575.35 C394.79,570.76 405.41,567.00 405.52,567.00 C405.63,567.00 406.03,572.06 406.41,578.25 C406.79,584.44 408.43,608.35 410.05,631.40 C411.67,654.44 413.00,675.03 413.00,677.15 ZM 588.00 622.00 L 588.00 681.00 L 497.00 681.00 L 497.00 595.20 L 499.75 594.20 C504.86,592.34 538.35,580.23 562.29,571.59 C575.38,566.87 586.52,563.00 587.04,563.00 C587.64,563.00 588.00,585.08 588.00,622.00 ZM 751.00 623.00 L 751.00 681.00 L 670.98 681.00 L 671.24 637.85 L 671.50 594.70 L 677.50 592.42 C680.80,591.17 698.31,584.49 716.42,577.57 C734.53,570.66 749.72,565.00 750.17,565.00 C750.63,565.00 751.00,591.10 751.00,623.00 ZM 450.00 177.00 L 450.00 253.00 L 528.00 253.00 L 528.00 177.00 ZM 379.00 224.00 L 379.00 280.00 L 436.75 280.00 L 437.38 276.88 C438.19,272.78 438.18,241.43 437.35,231.65 L 436.71 224.00 ZM 512.00 194.00 L 512.00 236.00 L 466.00 236.00 L 466.00 194.00 ZM 421.00 239.94 L 421.00 264.00 L 394.94 264.00 L 395.50 240.50 Z" fill="rgb(2,22,38)"/>
<path d="M 294.01 694.25 C294.01,690.68 296.29,662.68 299.47,627.00 C300.28,617.92 301.40,604.42 301.97,597.00 C304.91,558.16 313.73,451.63 319.47,385.50 C321.33,364.05 323.89,334.01 325.15,318.75 L 327.45 291.00 L 365.18 291.00 L 402.91 291.00 L 403.42 294.25 C403.70,296.04 404.42,305.83 405.01,316.00 C406.33,338.30 416.51,488.16 419.32,526.50 C420.35,540.49 420.83,543.44 422.03,543.18 C422.84,543.00 452.30,532.57 487.50,520.00 C522.70,507.43 560.05,494.16 570.50,490.51 C580.95,486.86 592.56,482.78 596.31,481.44 C600.05,480.10 603.31,479.00 603.54,479.00 C603.78,479.00 604.09,492.45 604.24,508.90 L 604.50 538.80 L 617.50 533.95 C638.43,526.14 744.50,487.16 756.25,482.96 L 767.00 479.12 L 767.00 509.56 C767.00,543.84 766.30,541.44 775.21,537.90 C790.10,531.99 934.44,479.00 935.65,479.00 C936.27,479.00 935.97,682.02 935.34,690.25 L 934.74 698.00 L 614.37 698.00 L 294.00 698.00 L 294.01 694.25 ZM 413.00 677.15 C413.00,675.03 411.67,654.44 410.05,631.40 C408.43,608.35 406.79,584.44 406.41,578.25 C406.03,572.06 405.63,567.00 405.52,567.00 C405.41,567.00 394.79,570.76 381.91,575.35 C369.04,579.94 349.73,586.77 339.00,590.52 C328.27,594.27 319.21,597.60 318.85,597.92 C318.50,598.24 317.24,609.97 316.05,624.00 C314.87,638.03 313.25,656.20 312.45,664.39 C311.65,672.58 311.00,679.67 311.00,680.14 C311.00,680.61 333.95,681.00 362.00,681.00 L 413.00 681.00 L 413.00 677.15 ZM 481.00 632.14 L 481.00 583.27 L 485.25 581.67 C488.98,580.27 572.52,550.28 583.75,546.31 L 588.00 544.81 L 588.00 523.91 C588.00,507.85 587.71,503.00 586.75,503.00 C585.28,503.00 553.88,514.01 454.50,549.35 L 422.50 560.73 L 422.21 564.62 C422.04,566.75 422.83,581.78 423.96,598.00 C425.08,614.22 426.78,639.54 427.73,654.25 L 429.45 681.00 L 455.22 681.00 L 481.00 681.00 L 481.00 632.14 ZM 588.00 622.00 C588.00,585.08 587.64,563.00 587.04,563.00 C586.52,563.00 575.38,566.87 562.29,571.59 C538.35,580.23 504.86,592.34 499.75,594.20 L 497.00 595.20 L 497.00 638.10 L 497.00 681.00 L 542.50 681.00 L 588.00 681.00 L 588.00 622.00 ZM 655.00 632.07 L 655.00 583.14 L 660.25 581.17 C663.14,580.09 675.17,575.51 687.00,570.99 C698.83,566.48 717.28,559.49 728.00,555.47 C738.72,551.45 748.29,547.86 749.25,547.48 C750.84,546.85 751.00,544.81 751.00,524.89 C751.00,512.85 750.62,503.00 750.15,503.00 C749.68,503.00 740.92,506.14 730.68,509.98 C720.45,513.83 697.77,522.21 680.29,528.61 C662.80,535.02 639.95,543.39 629.50,547.22 C619.05,551.05 609.04,554.66 607.25,555.26 L 604.00 556.34 L 604.00 618.67 L 604.00 681.00 L 629.50 681.00 L 655.00 681.00 L 655.00 632.07 ZM 751.00 623.00 C751.00,591.10 750.63,565.00 750.17,565.00 C749.72,565.00 734.53,570.66 716.42,577.57 C698.31,584.49 680.80,591.17 677.50,592.42 L 671.50 594.70 L 671.24 637.85 L 670.98 681.00 L 710.99 681.00 L 751.00 681.00 L 751.00 623.00 ZM 919.00 592.00 C919.00,538.88 918.63,503.00 918.09,503.00 C917.58,503.00 913.64,504.33 909.34,505.95 C905.03,507.58 878.78,517.28 851.00,527.52 C823.22,537.76 793.75,548.63 785.50,551.67 C777.25,554.72 769.71,557.63 768.75,558.14 C767.11,559.01 767.00,562.99 767.00,620.04 L 767.00 681.00 L 843.00 681.00 L 919.00 681.00 L 919.00 592.00 ZM 350.50 568.97 C378.85,559.02 403.19,550.15 403.79,549.55 C404.44,548.89 403.05,526.56 396.51,433.00 C394.61,405.77 392.14,370.23 391.03,354.00 C389.91,337.77 388.72,320.79 388.38,316.25 L 387.76 308.00 L 365.02 308.00 L 342.27 308.00 L 341.59 317.75 C341.22,323.11 338.69,353.38 335.97,385.00 C328.01,477.67 320.00,573.95 320.00,577.07 L 320.00 579.96 L 329.75 576.40 C335.11,574.43 344.45,571.09 350.50,568.97 ZM 379.00 252.00 L 379.00 224.00 L 407.85 224.00 L 436.71 224.00 L 437.35 231.65 C438.18,241.43 438.19,272.78 437.38,276.88 L 436.75 280.00 L 407.88 280.00 L 379.00 280.00 L 379.00 252.00 ZM 421.00 251.97 L 421.00 239.94 L 408.25 240.22 L 395.50 240.50 L 395.22 252.25 L 394.94 264.00 L 407.97 264.00 L 421.00 264.00 L 421.00 251.97 ZM 450.00 215.00 L 450.00 177.00 L 489.00 177.00 L 528.00 177.00 L 528.00 215.00 L 528.00 253.00 L 489.00 253.00 L 450.00 253.00 L 450.00 215.00 ZM 512.00 215.00 L 512.00 194.00 L 489.00 194.00 L 466.00 194.00 L 466.00 215.00 L 466.00 236.00 L 489.00 236.00 L 512.00 236.00 L 512.00 215.00 Z" fill="rgb(21,211,145)"/>
</g>
</svg>