<svg xmlns="http://www.w3.org/2000/svg" width="1024" height="1024" viewBox="0 0 1024 1024">
<g>
<path d="M 478.83 791.88 C477.64,792.61 474.06,793.46 470.85,793.75 L 465.03 794.27 L 464.77 766.45 L 464.50 738.63 L 460.50 744.71 C455.53,752.27 446.02,762.43 444.95,761.32 C444.52,760.87 446.13,756.45 448.53,751.50 C453.67,740.94 458.10,727.65 461.37,713.00 L 463.72 702.50 L 455.11 702.00 C447.12,701.54 446.48,701.34 446.18,699.25 C445.87,697.05 446.08,697.00 455.43,697.00 L 465.00 697.00 L 465.00 662.78 L 475.25 663.51 C480.89,663.90 485.84,664.43 486.27,664.68 C487.45,665.39 486.06,667.03 483.40,668.04 C481.02,668.94 481.00,669.09 481.00,682.98 C481.00,690.69 481.34,697.00 481.75,697.00 C482.16,697.00 484.03,694.75 485.91,692.00 C487.78,689.25 489.60,687.00 489.94,687.00 C490.29,687.00 492.98,689.44 495.92,692.42 C498.86,695.40 501.84,697.62 502.53,697.35 C503.23,697.08 507.04,698.25 511.00,699.93 C516.02,702.07 519.83,703.00 523.52,703.00 C528.54,703.00 529.03,702.77 532.32,698.81 L 535.80 694.61 L 543.04 700.47 C549.72,705.86 550.14,706.42 548.45,707.66 C547.44,708.40 546.25,709.00 545.81,709.00 C545.36,709.00 545.00,719.37 545.00,732.05 L 545.00 755.10 L 541.53 756.55 C539.62,757.35 536.47,758.00 534.53,758.00 L 531.00 758.00 L 531.00 747.00 L 517.00 747.00 L 517.00 752.97 C517.00,758.48 516.78,759.06 514.25,760.37 C512.74,761.15 509.48,761.95 507.00,762.14 L 502.50 762.50 L 502.24 731.65 C502.00,704.12 501.80,700.86 500.40,701.40 C499.54,701.73 494.82,702.00 489.92,702.00 L 481.00 702.00 L 481.00 713.97 L 486.81 716.90 C490.01,718.52 494.28,721.67 496.31,723.92 C499.41,727.35 500.00,728.72 500.00,732.50 C500.00,737.83 497.46,741.00 493.19,741.00 C489.03,741.00 487.39,739.12 486.20,733.00 C485.62,729.97 484.32,725.70 483.32,723.50 C481.51,719.53 481.50,719.78 481.24,755.02 C480.98,790.14 480.95,790.55 478.83,791.88 ZM 272.28 789.36 C269.41,790.81 266.60,792.00 266.03,792.00 C263.85,792.00 265.16,789.40 268.49,787.13 C273.58,783.67 285.53,770.78 289.70,764.25 C301.80,745.35 307.62,723.43 308.22,694.64 L 308.50 680.78 L 287.00 680.64 C265.51,680.50 265.50,680.50 265.18,678.25 L 264.86 676.00 L 372.50 675.98 L 377.86 669.51 L 383.22 663.05 L 390.86 669.19 C391.35,669.58 391.82,669.96 392.26,670.31 C399.33,675.99 400.99,677.32 400.81,678.31 C400.74,678.68 400.42,679.00 400.02,679.47 C398.88,680.85 394.34,681.04 363.11,680.97 L 327.50 680.90 L 326.82 693.20 C326.44,699.96 325.89,706.74 325.59,708.25 L 325.05 711.00 L 356.84 711.00 L 360.73 706.45 L 364.62 701.90 L 371.56 707.54 C372.13,708.01 372.67,708.44 373.18,708.86 C378.72,713.35 380.64,714.91 380.38,715.89 C380.22,716.51 379.19,716.89 377.66,717.63 C374.12,719.31 374.00,719.55 374.00,724.72 C374.00,741.39 368.92,767.62 363.85,777.13 C359.82,784.69 355.49,787.73 346.70,789.19 C338.66,790.52 337.00,789.98 337.00,786.07 C337.00,781.51 331.95,776.40 325.42,774.34 C318.30,772.10 317.86,769.48 324.75,770.33 C340.86,772.32 343.39,772.29 346.22,770.05 C350.80,766.43 354.85,749.07 356.57,725.64 L 357.27 716.00 L 324.23 716.00 L 323.52 720.75 C322.49,727.60 318.25,740.54 314.75,747.50 C306.06,764.75 290.39,780.20 272.28,789.36 ZM 680.42 791.81 C679.28,792.40 676.02,793.19 673.17,793.57 L 668.00 794.26 L 667.99 738.50 L 663.82 743.50 C652.92,756.57 635.85,771.25 633.86,769.26 C633.12,768.52 634.14,766.57 637.24,762.77 C643.00,755.70 650.92,742.44 655.02,733.01 C657.71,726.85 663.00,712.47 663.00,711.35 C663.00,711.19 657.04,710.93 649.75,710.78 C636.87,710.51 636.49,710.44 636.18,708.25 L 635.86 706.00 L 668.00 706.00 L 668.00 683.71 L 645.50 685.65 C639.20,686.19 638.00,686.05 638.00,684.79 C638.00,683.75 640.58,682.56 646.25,680.98 C657.05,677.98 679.98,669.53 687.22,665.88 C690.37,664.30 693.46,663.00 694.09,663.00 C695.68,663.00 711.21,677.13 710.45,677.88 C710.11,678.22 706.60,678.51 702.66,678.52 C698.72,678.53 692.91,679.12 689.75,679.84 L 684.00 681.14 L 684.00 706.00 L 687.47 706.00 C690.56,706.00 691.38,705.36 695.13,700.05 L 699.32 694.11 L 706.66 700.68 C710.70,704.29 714.00,707.55 714.00,707.92 C714.00,710.40 710.82,711.00 697.80,711.00 L 684.00 711.00 L 684.00 720.53 L 689.25 722.35 C697.23,725.11 704.65,730.39 706.98,734.96 C710.86,742.56 709.01,750.18 702.96,751.51 C698.14,752.57 695.55,750.14 693.13,742.30 C691.98,738.56 689.56,733.03 687.77,730.00 L 684.50 724.50 L 684.00 757.17 C683.72,775.14 683.28,790.04 683.00,790.28 C682.72,790.53 681.57,791.21 680.42,791.81 ZM 564.04 790.75 C561.09,792.24 557.78,793.00 554.29,793.00 C549.29,793.00 549.00,792.86 549.00,790.45 C549.00,787.05 546.47,782.32 543.91,780.95 C542.77,780.34 539.63,779.19 536.92,778.38 C528.50,775.88 530.82,774.68 542.53,775.48 C550.26,776.01 553.45,775.87 554.53,774.98 C555.79,773.93 556.00,766.85 556.00,726.38 L 556.00 679.00 L 525.54 679.00 C496.44,679.00 495.02,678.91 494.04,677.07 C493.47,676.00 493.00,674.88 493.00,674.57 C493.00,674.25 509.15,674.00 528.88,674.00 L 564.76 674.00 L 569.00 668.50 C571.33,665.47 573.53,663.00 573.87,663.01 C574.22,663.02 578.01,665.98 582.30,669.60 C591.86,677.67 591.59,679.00 580.38,679.00 L 573.00 679.00 L 573.00 729.29 C573.00,779.45 572.99,779.59 570.75,784.04 C569.11,787.30 567.30,789.11 564.04,790.75 ZM 753.93 789.54 C752.20,790.43 748.42,791.41 745.54,791.71 L 740.30 792.25 L 739.64 788.18 C738.76,782.62 735.50,779.20 729.02,777.01 C720.01,773.96 721.36,772.84 733.65,773.19 L 744.50 773.50 L 745.02 664.74 L 751.26 665.41 C768.07,667.21 769.74,667.79 764.64,670.12 C762.56,671.07 762.20,672.09 761.64,678.75 C761.29,682.90 761.00,707.72 761.00,733.90 C760.99,779.35 760.90,781.64 759.04,784.70 C757.97,786.46 755.67,788.64 753.93,789.54 ZM 727.41 759.19 C725.72,760.18 722.23,761.28 719.66,761.63 L 715.00 762.27 L 715.00 674.36 L 721.75 675.15 C736.67,676.91 738.74,677.79 733.51,680.18 L 731.02 681.31 L 730.76 719.35 L 730.50 757.39 ZM 336.52 841.50 C333.44,852.41 333.39,852.50 330.20,852.81 C328.21,853.01 326.81,852.63 326.52,851.81 C325.25,848.22 318.00,821.33 318.00,820.18 C318.00,819.34 318.98,818.98 320.75,819.18 C323.34,819.48 323.65,820.08 326.09,829.50 C327.51,835.00 329.03,840.85 329.46,842.50 C330.16,845.14 330.69,843.94 333.91,832.50 C337.51,819.71 337.61,819.50 340.58,819.20 L 343.59 818.90 L 346.96 830.99 C348.81,837.64 350.64,843.28 351.04,843.53 C351.44,843.77 352.74,840.04 353.93,835.24 C357.12,822.40 357.68,819.68 359.10,819.12 C359.48,818.97 359.93,818.98 360.50,818.99 C360.67,819.00 360.85,819.00 361.04,819.00 C362.67,819.00 363.99,819.11 363.97,819.25 C363.96,819.39 361.80,826.92 359.19,836.00 L 354.43 852.50 L 351.30 852.81 C348.28,853.10 348.12,852.92 346.55,847.31 C342.42,832.57 340.69,827.61 340.17,829.00 C339.87,829.83 338.22,835.45 336.52,841.50 ZM 450.50 827.76 L 449.94 853.00 L 445.00 853.00 L 445.00 819.00 L 447.81 819.00 C450.27,819.00 451.62,820.49 459.06,831.41 L 467.50 843.82 L 468.06 819.00 L 474.00 819.00 L 474.00 853.00 L 470.71 853.00 C467.62,853.00 466.93,852.27 458.96,840.38 ZM 393.25 848.75 C392.00,852.48 391.47,853.00 388.85,853.00 C388.66,853.00 388.48,853.00 388.32,853.01 C387.57,853.02 387.02,853.03 386.72,852.76 C385.86,851.97 387.13,848.85 392.06,836.72 C392.45,835.77 392.86,834.76 393.29,833.70 C399.29,818.93 399.31,818.90 402.35,819.20 C405.27,819.49 405.63,820.09 411.49,834.50 C414.85,842.75 417.90,850.29 418.27,851.25 C418.81,852.68 418.38,853.00 415.93,853.00 C413.32,853.00 412.67,852.41 410.98,848.46 L 409.03 843.91 L 401.85 844.21 L 394.66 844.50 ZM 517.00 707.00 L 517.00 742.00 L 531.00 742.00 L 531.00 707.00 ZM 540.00 847.17 C540.00,852.98 539.99,853.00 537.00,853.00 L 534.00 853.00 L 534.00 819.00 L 540.00 819.00 L 540.04 827.25 L 540.09 835.50 L 547.79 827.23 C554.41,820.14 555.96,818.97 558.75,818.98 C560.54,818.99 562.00,819.33 562.00,819.72 C562.00,820.12 559.04,823.43 555.43,827.07 L 548.86 833.69 L 555.07 841.60 C558.49,845.94 561.97,850.29 562.80,851.25 C564.20,852.88 564.03,853.00 560.40,852.96 C556.71,852.91 556.19,852.49 550.56,844.96 L 544.63 837.00 L 542.31 839.18 C540.41,840.96 540.00,842.38 540.00,847.17 ZM 615.00 850.36 L 615.00 853.00 L 591.00 853.00 L 591.00 819.00 L 615.00 819.00 L 615.00 821.50 C615.00,823.98 614.93,824.00 606.00,824.00 L 597.00 824.00 L 597.00 833.00 L 604.50 833.00 C611.83,833.00 612.00,833.06 612.00,835.50 C612.00,837.94 611.83,838.00 604.50,838.00 L 597.00 838.00 L 597.00 842.89 C597.00,847.63 597.09,847.79 600.25,848.26 C602.04,848.53 606.09,848.52 609.25,848.23 C614.93,847.73 615.00,847.76 615.00,850.36 ZM 666.82 850.75 C667.14,852.98 667.01,853.00 655.07,853.00 L 643.00 853.00 L 643.00 819.00 L 649.00 819.00 L 649.00 847.92 L 657.75 848.21 C665.96,848.48 666.52,848.64 666.82,850.75 ZM 699.00 819.00 L 699.00 853.00 L 693.00 853.00 L 693.00 819.00 ZM 397.00 838.54 C397.00,838.79 399.25,839.00 402.00,839.00 C404.75,839.00 406.99,838.66 406.98,838.25 C406.97,837.84 405.89,834.58 404.57,831.00 C402.64,825.77 402.03,824.89 401.43,826.50 C401.02,827.60 399.85,830.65 398.84,833.29 C397.83,835.92 397.00,838.28 397.00,838.54 Z" fill="rgb(51,39,35)"/>
<path d="M 552.50 622.62 C541.93,624.33 495.68,625.41 487.00,624.15 L 482.50 623.50 L 482.34 542.50 C482.26,497.95 482.15,458.91 482.09,455.75 L 482.00 450.00 L 416.00 450.00 L 416.00 265.03 L 449.14 264.76 L 482.29 264.50 L 482.10 207.04 C481.99,175.43 481.81,149.50 481.70,149.41 C481.10,148.93 462.14,153.34 453.98,155.87 C394.85,174.14 346.87,214.62 320.52,268.45 C303.86,302.49 297.05,333.19 298.32,368.50 C298.98,386.90 300.66,398.16 305.49,416.59 C325.01,491.14 378.83,547.49 453.48,571.50 L 463.46 574.72 L 463.47 582.61 C463.47,586.95 463.37,597.18 463.24,605.34 L 463.00 620.18 L 458.75 619.47 C452.18,618.39 432.22,612.49 421.33,608.41 C400.43,600.58 379.33,589.05 360.83,575.34 C303.52,532.86 267.49,475.35 256.11,408.18 C246.36,350.67 254.44,293.39 279.48,242.50 C292.91,215.21 306.31,196.53 327.93,174.96 C349.21,153.74 367.89,140.22 394.00,127.15 C433.68,107.29 469.33,99.00 515.09,99.00 L 536.99 99.00 L 537.24 181.75 L 537.50 264.50 L 609.00 265.03 L 609.00 449.97 L 537.50 450.50 L 537.24 514.00 C537.10,548.92 537.17,577.99 537.40,578.60 C538.45,581.35 567.66,574.59 586.00,567.35 C654.01,540.51 705.23,480.82 721.02,410.00 C728.04,378.52 727.67,340.02 720.05,310.18 C710.06,271.06 689.34,235.91 658.89,206.43 C632.58,180.95 596.86,160.68 563.75,152.44 L 557.00 150.76 L 557.00 102.05 L 560.25 102.64 C567.94,104.03 587.33,109.19 597.38,112.52 C656.22,132.04 706.63,173.64 737.51,228.16 C771.38,287.97 780.75,362.29 763.00,430.40 C751.43,474.77 727.09,516.98 694.02,550.00 C672.66,571.34 651.78,586.21 624.50,599.51 C600.46,611.23 577.64,618.56 552.50,622.62 ZM 463.49 399.75 L 464.09 403.00 L 561.00 403.00 L 561.00 311.98 L 512.25 312.24 L 463.50 312.50 L 463.19 354.50 C463.02,377.60 463.15,397.96 463.49,399.75 ZM 759.00 893.50 C759.00,894.82 746.39,895.00 651.50,895.00 C556.61,895.00 544.00,894.82 544.00,893.50 C544.00,892.18 556.61,892.00 651.50,892.00 C746.39,892.00 759.00,892.18 759.00,893.50 ZM 481.00 893.50 C481.00,894.82 468.39,895.00 373.50,895.00 C278.61,895.00 266.00,894.82 266.00,893.50 C266.00,892.18 278.61,892.00 373.50,892.00 C468.39,892.00 481.00,892.18 481.00,893.50 ZM 517.00 898.00 C514.12,900.88 509.61,900.59 507.07,897.37 C504.51,894.11 504.45,891.90 506.84,888.94 C508.09,887.40 509.76,886.67 512.00,886.67 C518.06,886.67 521.21,893.79 517.00,898.00 Z" fill="rgb(226,4,6)"/>
<path d="M 0.00 512.00 L 0.00 0.00 L 512.00 0.00 L 1024.00 0.00 L 1024.00 512.00 L 1024.00 1024.00 L 512.00 1024.00 L 0.00 1024.00 L 0.00 512.00 ZM 517.00 898.00 C521.21,893.79 518.06,886.67 512.00,886.67 C509.76,886.67 508.09,887.40 506.84,888.94 C504.45,891.90 504.51,894.11 507.07,897.37 C509.61,900.59 514.12,900.88 517.00,898.00 ZM 481.00 893.50 C481.00,892.18 468.39,892.00 373.50,892.00 C278.61,892.00 266.00,892.18 266.00,893.50 C266.00,894.82 278.61,895.00 373.50,895.00 C468.39,895.00 481.00,894.82 481.00,893.50 ZM 759.00 893.50 C759.00,892.18 746.39,892.00 651.50,892.00 C556.61,892.00 544.00,892.18 544.00,893.50 C544.00,894.82 556.61,895.00 651.50,895.00 C746.39,895.00 759.00,894.82 759.00,893.50 ZM 336.52 841.50 C338.22,835.45 339.87,829.83 340.17,829.00 C340.69,827.61 342.42,832.57 346.55,847.31 C348.12,852.92 348.28,853.10 351.30,852.81 L 354.43 852.50 L 359.19 836.00 C361.80,826.92 363.96,819.39 363.97,819.25 C363.99,819.11 362.67,819.00 361.04,819.00 C357.76,819.00 358.23,817.93 353.93,835.24 C352.74,840.04 351.44,843.77 351.04,843.53 C350.64,843.28 348.81,837.64 346.96,830.99 L 343.59 818.90 L 340.58 819.20 C337.61,819.50 337.51,819.71 333.91,832.50 C330.69,843.94 330.16,845.14 329.46,842.50 C329.03,840.85 327.51,835.00 326.09,829.50 C323.65,820.08 323.34,819.48 320.75,819.18 C318.98,818.98 318.00,819.34 318.00,820.18 C318.00,821.33 325.25,848.22 326.52,851.81 C326.81,852.63 328.21,853.01 330.20,852.81 C333.39,852.50 333.44,852.41 336.52,841.50 ZM 393.25 848.75 L 394.66 844.50 L 401.85 844.21 L 409.03 843.91 L 410.98 848.46 C412.67,852.41 413.32,853.00 415.93,853.00 C418.38,853.00 418.81,852.68 418.27,851.25 C417.90,850.29 414.85,842.75 411.49,834.50 C405.63,820.09 405.27,819.49 402.35,819.20 C399.31,818.90 399.29,818.93 393.29,833.70 C385.00,854.12 385.26,853.00 388.85,853.00 C391.47,853.00 392.00,852.48 393.25,848.75 ZM 450.22 840.38 L 450.50 827.76 L 458.96 840.38 C466.93,852.27 467.62,853.00 470.71,853.00 L 474.00 853.00 L 474.00 836.00 L 474.00 819.00 L 471.03 819.00 L 468.06 819.00 L 467.78 831.41 L 467.50 843.82 L 459.06 831.41 C451.62,820.49 450.27,819.00 447.81,819.00 L 445.00 819.00 L 445.00 836.00 L 445.00 853.00 L 447.47 853.00 L 449.94 853.00 L 450.22 840.38 ZM 540.00 847.17 C540.00,842.38 540.41,840.96 542.31,839.18 L 544.63 837.00 L 550.56 844.96 C556.19,852.49 556.71,852.91 560.40,852.96 C564.03,853.00 564.20,852.88 562.80,851.25 C561.97,850.29 558.49,845.94 555.07,841.60 L 548.86 833.69 L 555.43 827.07 C559.04,823.43 562.00,820.12 562.00,819.72 C562.00,819.33 560.54,818.99 558.75,818.98 C555.96,818.97 554.41,820.14 547.79,827.23 L 540.09 835.50 L 540.04 827.25 L 540.00 819.00 L 537.00 819.00 L 534.00 819.00 L 534.00 836.00 L 534.00 853.00 L 537.00 853.00 C539.99,853.00 540.00,852.98 540.00,847.17 ZM 615.00 850.36 C615.00,847.76 614.93,847.73 609.25,848.23 C606.09,848.52 602.04,848.53 600.25,848.26 C597.09,847.79 597.00,847.63 597.00,842.89 L 597.00 838.00 L 604.50 838.00 C611.83,838.00 612.00,837.94 612.00,835.50 C612.00,833.06 611.83,833.00 604.50,833.00 L 597.00 833.00 L 597.00 828.50 L 597.00 824.00 L 606.00 824.00 C614.93,824.00 615.00,823.98 615.00,821.50 L 615.00 819.00 L 603.00 819.00 L 591.00 819.00 L 591.00 836.00 L 591.00 853.00 L 603.00 853.00 L 615.00 853.00 L 615.00 850.36 ZM 666.82 850.75 C666.52,848.64 665.96,848.48 657.75,848.21 L 649.00 847.92 L 649.00 833.46 L 649.00 819.00 L 646.00 819.00 L 643.00 819.00 L 643.00 836.00 L 643.00 853.00 L 655.07 853.00 C667.01,853.00 667.14,852.98 666.82,850.75 ZM 699.00 836.00 L 699.00 819.00 L 696.00 819.00 L 693.00 819.00 L 693.00 836.00 L 693.00 853.00 L 696.00 853.00 L 699.00 853.00 L 699.00 836.00 ZM 478.83 791.88 C480.95,790.55 480.98,790.14 481.24,755.02 C481.50,719.78 481.51,719.53 483.32,723.50 C484.32,725.70 485.62,729.97 486.20,733.00 C487.39,739.12 489.03,741.00 493.19,741.00 C497.46,741.00 500.00,737.83 500.00,732.50 C500.00,728.72 499.41,727.35 496.31,723.92 C494.28,721.67 490.01,718.52 486.81,716.90 L 481.00 713.97 L 481.00 707.99 L 481.00 702.00 L 489.92 702.00 C494.82,702.00 499.54,701.73 500.40,701.40 C501.80,700.86 502.00,704.12 502.24,731.65 L 502.50 762.50 L 507.00 762.14 C509.48,761.95 512.74,761.15 514.25,760.37 C516.78,759.06 517.00,758.48 517.00,752.97 L 517.00 747.00 L 524.00 747.00 L 531.00 747.00 L 531.00 752.50 L 531.00 758.00 L 534.53 758.00 C536.47,758.00 539.62,757.35 541.53,756.55 L 545.00 755.10 L 545.00 732.05 C545.00,719.37 545.36,709.00 545.81,709.00 C546.25,709.00 547.44,708.40 548.45,707.66 C550.14,706.42 549.72,705.86 543.04,700.47 L 535.80 694.61 L 532.32 698.81 C529.03,702.77 528.54,703.00 523.52,703.00 C519.83,703.00 516.02,702.07 511.00,699.93 C507.04,698.25 503.23,697.08 502.53,697.35 C501.84,697.62 498.86,695.40 495.92,692.42 C492.98,689.44 490.29,687.00 489.94,687.00 C489.60,687.00 487.78,689.25 485.91,692.00 C484.03,694.75 482.16,697.00 481.75,697.00 C481.34,697.00 481.00,690.69 481.00,682.98 C481.00,669.09 481.02,668.94 483.40,668.04 C486.06,667.03 487.45,665.39 486.27,664.68 C485.84,664.43 480.89,663.90 475.25,663.51 L 465.00 662.78 L 465.00 679.89 L 465.00 697.00 L 455.43 697.00 C446.08,697.00 445.87,697.05 446.18,699.25 C446.48,701.34 447.12,701.54 455.11,702.00 L 463.72 702.50 L 461.37 713.00 C458.10,727.65 453.67,740.94 448.53,751.50 C446.13,756.45 444.52,760.87 444.95,761.32 C446.02,762.43 455.53,752.27 460.50,744.71 L 464.50 738.63 L 464.77 766.45 L 465.03 794.27 L 470.85 793.75 C474.06,793.46 477.64,792.61 478.83,791.88 ZM 680.42 791.81 C681.57,791.21 682.72,790.53 683.00,790.28 C683.28,790.04 683.72,775.14 684.00,757.17 L 684.50 724.50 L 687.77 730.00 C689.56,733.03 691.98,738.56 693.13,742.30 C695.55,750.14 698.14,752.57 702.96,751.51 C709.01,750.18 710.86,742.56 706.98,734.96 C704.65,730.39 697.23,725.11 689.25,722.35 L 684.00 720.53 L 684.00 715.77 L 684.00 711.00 L 697.80 711.00 C710.82,711.00 714.00,710.40 714.00,707.92 C714.00,707.55 710.70,704.29 706.66,700.68 L 699.32 694.11 L 695.13 700.05 C691.38,705.36 690.56,706.00 687.47,706.00 L 684.00 706.00 L 684.00 693.57 L 684.00 681.14 L 689.75 679.84 C692.91,679.12 698.72,678.53 702.66,678.52 C706.60,678.51 710.11,678.22 710.45,677.88 C711.21,677.13 695.68,663.00 694.09,663.00 C693.46,663.00 690.37,664.30 687.22,665.88 C679.98,669.53 657.05,677.98 646.25,680.98 C640.58,682.56 638.00,683.75 638.00,684.79 C638.00,686.05 639.20,686.19 645.50,685.65 C649.62,685.29 656.38,684.71 660.50,684.35 L 668.00 683.71 L 668.00 694.85 L 668.00 706.00 L 651.93 706.00 L 635.86 706.00 L 636.18 708.25 C636.49,710.44 636.87,710.51 649.75,710.78 C657.04,710.93 663.00,711.19 663.00,711.35 C663.00,712.47 657.71,726.85 655.02,733.01 C650.92,742.44 643.00,755.70 637.24,762.77 C634.14,766.57 633.12,768.52 633.86,769.26 C635.85,771.25 652.92,756.57 663.82,743.50 L 667.99 738.50 L 667.99 766.38 L 668.00 794.26 L 673.17 793.57 C676.02,793.19 679.28,792.40 680.42,791.81 ZM 564.04 790.75 C567.30,789.11 569.11,787.30 570.75,784.04 C572.99,779.59 573.00,779.45 573.00,729.29 L 573.00 679.00 L 580.38 679.00 C591.59,679.00 591.86,677.67 582.30,669.60 C578.01,665.98 574.22,663.02 573.87,663.01 C573.53,663.00 571.33,665.47 569.00,668.50 L 564.76 674.00 L 528.88 674.00 C509.15,674.00 493.00,674.25 493.00,674.57 C493.00,674.88 493.47,676.00 494.04,677.07 C495.02,678.91 496.44,679.00 525.54,679.00 L 556.00 679.00 L 556.00 726.38 C556.00,766.85 555.79,773.93 554.53,774.98 C553.45,775.87 550.26,776.01 542.53,775.48 C530.82,774.68 528.50,775.88 536.92,778.38 C539.63,779.19 542.77,780.34 543.91,780.95 C546.47,782.32 549.00,787.05 549.00,790.45 C549.00,792.86 549.29,793.00 554.29,793.00 C557.78,793.00 561.09,792.24 564.04,790.75 ZM 272.28 789.36 C290.39,780.20 306.06,764.75 314.75,747.50 C318.25,740.54 322.49,727.60 323.52,720.75 L 324.23 716.00 L 340.75 716.00 L 357.27 716.00 L 356.57 725.64 C354.85,749.07 350.80,766.43 346.22,770.05 C343.39,772.29 340.86,772.32 324.75,770.33 C317.86,769.48 318.30,772.10 325.42,774.34 C331.95,776.40 337.00,781.51 337.00,786.07 C337.00,789.98 338.66,790.52 346.70,789.19 C355.49,787.73 359.82,784.69 363.85,777.13 C368.92,767.62 374.00,741.39 374.00,724.72 C374.00,719.55 374.12,719.31 377.66,717.63 C381.87,715.62 382.24,716.22 371.56,707.54 L 364.62 701.90 L 360.73 706.45 L 356.84 711.00 L 340.95 711.00 L 325.05 711.00 L 325.59 708.25 C325.89,706.74 326.44,699.96 326.82,693.20 L 327.50 680.90 L 363.11 680.97 C394.34,681.04 398.88,680.85 400.02,679.47 C401.55,677.63 401.99,678.13 390.86,669.19 L 383.22 663.05 L 377.86 669.51 L 372.50 675.98 L 318.68 675.99 L 264.86 676.00 L 265.18 678.25 C265.50,680.50 265.51,680.50 287.00,680.64 L 308.50 680.78 L 308.22 694.64 C307.62,723.43 301.80,745.35 289.70,764.25 C285.53,770.78 273.58,783.67 268.49,787.13 C265.16,789.40 263.85,792.00 266.03,792.00 C266.60,792.00 269.41,790.81 272.28,789.36 ZM 753.93 789.54 C755.67,788.64 757.97,786.46 759.04,784.70 C760.90,781.64 760.99,779.35 761.00,733.90 C761.00,707.72 761.29,682.90 761.64,678.75 C762.20,672.09 762.56,671.07 764.64,670.12 C769.74,667.79 768.07,667.21 751.26,665.41 L 745.02 664.74 L 744.76 719.12 L 744.50 773.50 L 733.65 773.19 C721.36,772.84 720.01,773.96 729.02,777.01 C735.50,779.20 738.76,782.62 739.64,788.18 L 740.30 792.25 L 745.54 791.71 C748.42,791.41 752.20,790.43 753.93,789.54 ZM 727.41 759.19 L 730.50 757.39 L 730.76 719.35 L 731.02 681.31 L 733.51 680.18 C738.74,677.79 736.67,676.91 721.75,675.15 L 715.00 674.36 L 715.00 718.31 L 715.00 762.27 L 719.66 761.63 C722.23,761.28 725.72,760.18 727.41,759.19 ZM 552.50 622.62 C577.64,618.56 600.46,611.23 624.50,599.51 C651.78,586.21 672.66,571.34 694.02,550.00 C727.09,516.98 751.43,474.77 763.00,430.40 C780.75,362.29 771.38,287.97 737.51,228.16 C706.63,173.64 656.22,132.04 597.38,112.52 C587.33,109.19 567.94,104.03 560.25,102.64 L 557.00 102.05 L 557.00 126.40 L 557.00 150.76 L 563.75 152.44 C596.86,160.68 632.58,180.95 658.89,206.43 C689.34,235.91 710.06,271.06 720.05,310.18 C727.67,340.02 728.04,378.52 721.02,410.00 C705.23,480.82 654.01,540.51 586.00,567.35 C567.66,574.59 538.45,581.35 537.40,578.60 C537.17,577.99 537.10,548.92 537.24,514.00 L 537.50 450.50 L 573.25 450.24 L 609.00 449.97 L 609.00 357.50 L 609.00 265.03 L 573.25 264.76 L 537.50 264.50 L 537.24 181.75 L 536.99 99.00 L 515.09 99.00 C469.33,99.00 433.68,107.29 394.00,127.15 C367.89,140.22 349.21,153.74 327.93,174.96 C306.31,196.53 292.91,215.21 279.48,242.50 C254.44,293.39 246.36,350.67 256.11,408.18 C267.49,475.35 303.52,532.86 360.83,575.34 C379.33,589.05 400.43,600.58 421.33,608.41 C432.22,612.49 452.18,618.39 458.75,619.47 L 463.00 620.18 L 463.24 605.34 C463.37,597.18 463.47,586.95 463.47,582.61 L 463.46 574.72 L 453.48 571.50 C378.83,547.49 325.01,491.14 305.49,416.59 C300.66,398.16 298.98,386.90 298.32,368.50 C297.05,333.19 303.86,302.49 320.52,268.45 C346.87,214.62 394.85,174.14 453.98,155.87 C462.14,153.34 481.10,148.93 481.70,149.41 C481.81,149.50 481.99,175.43 482.10,207.04 L 482.29 264.50 L 449.14 264.76 L 416.00 265.03 L 416.00 357.51 L 416.00 450.00 L 449.00 450.00 L 482.00 450.00 L 482.09 455.75 C482.15,458.91 482.26,497.95 482.34,542.50 L 482.50 623.50 L 487.00 624.15 C495.68,625.41 541.93,624.33 552.50,622.62 ZM 397.00 838.54 C397.00,838.28 397.83,835.92 398.84,833.29 C399.85,830.65 401.02,827.60 401.43,826.50 C402.03,824.89 402.64,825.77 404.57,831.00 C405.89,834.58 406.97,837.84 406.98,838.25 C406.99,838.66 404.75,839.00 402.00,839.00 C399.25,839.00 397.00,838.79 397.00,838.54 ZM 517.00 724.50 L 517.00 707.00 L 524.00 707.00 L 531.00 707.00 L 531.00 724.50 L 531.00 742.00 L 524.00 742.00 L 517.00 742.00 L 517.00 724.50 ZM 463.49 399.75 C463.15,397.96 463.02,377.60 463.19,354.50 L 463.50 312.50 L 512.25 312.24 L 561.00 311.98 L 561.00 357.49 L 561.00 403.00 L 512.55 403.00 L 464.09 403.00 L 463.49 399.75 Z" fill="rgb(251,250,250)"/>
</g>
</svg>